# xmcd
#
# Track frame offsets:
# 150
# 12470
# 31397
# 44572
# 60750
# 74347
# 87707
# 100870
# 117867
# 132520
# 142882
# 157320
# 174337
#
# Disc length: 2507 seconds
#
#
# Revision: 0
# Processed by: cddbd v1.5.1PL0 Copyright (c) Steve Scherf et al.
# Submitted via: FreeRIP 2.942 
#
DISCID=b509c90d
DTITLE=Rodrigo Mattos - Juventude na Viola
DYEAR=2000
DGENRE=Caipira
TTITLE0=To saindo, to entrando
TTITLE1=Pescador e Catireiro
TTITLE2=Pagode do vira
TTITLE3=Cavalo xucro
TTITLE4=Relembrando Tiao Carreiro
TTITLE5=Do jeito que eu queria
TTITLE6=Arame farpado
TTITLE7=Avanca Brasil
TTITLE8=Cacador
TTITLE9=Prova do Laco
TTITLE10=Movimento dos sem amor
TTITLE11=Fases da lua
TTITLE12=Chalana
EXTD=
EXTT0=
EXTT1=
EXTT2=
EXTT3=
EXTT4=
EXTT5=
EXTT6=
EXTT7=
EXTT8=
EXTT9=
EXTT10=
EXTT11=
EXTT12=
PLAYORDER=
